REM MD5 8a52b3aae96584b01a1becd57f984eaf
FILE "Chinmoku no Kantai - The Silent Service (Japan).bin" BINARY
  TRACK 01 MODE2/2352
    INDEX 01 00:00:00
  TRACK 02 AUDIO
    INDEX 00 53:39:70
    INDEX 01 53:41:70
  TRACK 03 AUDIO
    INDEX 00 56:23:33
    INDEX 01 56:25:33
  TRACK 04 AUDIO
    INDEX 00 60:38:36
    INDEX 01 60:40:36
  TRACK 05 AUDIO
    INDEX 00 65:28:38
    INDEX 01 65:30:38
  TRACK 06 MODE2/2352
    INDEX 00 70:24:04
    INDEX 01 70:27:04
REM LEADOUT 70:36:00
